# xmcd CD database file
#
# Track frame offsets:
#	150
#	16336
#	32448
#	47686
#	67049
#	83340
#	98708
#	115654
#	129246
#	142693
#	163693
#
# Disc length: 2426 seconds
#
# Revision: 0
# Processed by: cddbd v1.5.2PL0 Copyright (c) Steve Scherf et al.
# Submitted via: CDex 1.51
#
DISCID=7809780b
DTITLE=Björn Skifs - Break The Spell
DYEAR=2011
DGENRE=Pop ballader
TTITLE0=Break The Spell
TTITLE1=Let's Kiss
TTITLE2=Back To Were We Started From
TTITLE3=When Our Lips Touch
TTITLE4=I Already Know
TTITLE5=Damned If I Do
TTITLE6=You Got There In The End
TTITLE7=Step Right Up
TTITLE8=This Is Where The Story Ends
TTITLE9=You Were Loved
TTITLE10=When You Tell The World You're Mine (bonustrack) feat.Agnes
EXTD=YEAR: 2011
EXTT0=
EXTT1=
EXTT2=
EXTT3=
EXTT4=
EXTT5=
EXTT6=
EXTT7=
EXTT8=
EXTT9=
EXTT10=
PLAYORDER=
